<?xml version="1.0" encoding="UTF-8" standalone="no"?>
<svg
   xmlns:dc="http://purl.org/dc/elements/1.1/"
   xmlns:cc="http://creativecommons.org/ns#"
   xmlns:rdf="http://www.w3.org/1999/02/22-rdf-syntax-ns#"
   xmlns:svg="http://www.w3.org/2000/svg"
   xmlns="http://www.w3.org/2000/svg"
   xmlns:sodipodi="http://sodipodi.sourceforge.net/DTD/sodipodi-0.dtd"
   xmlns:inkscape="http://www.inkscape.org/namespaces/inkscape"
   version="1.1"
   id="svg10"
   width="512"
   height="512"
   viewBox="0 0 512 512"
   sodipodi:docname="dbc_logo.svg"
   inkscape:version="1.0.1 (3bc2e813f5, 2020-09-07)">
  <metadata
     id="metadata16">
    <rdf:RDF>
      <cc:Work
         rdf:about="">
        <dc:format>image/svg+xml</dc:format>
        <dc:type
           rdf:resource="http://purl.org/dc/dcmitype/StillImage" />
        <dc:title />
      </cc:Work>
    </rdf:RDF>
  </metadata>
  <defs
     id="defs14">
    <inkscape:path-effect
       effect="bspline"
       id="path-effect1679"
       is_visible="true"
       lpeversion="1"
       weight="33.333333"
       steps="2"
       helper_size="0"
       apply_no_weight="true"
       apply_with_weight="true"
       only_selected="false" />
    <inkscape:path-effect
       effect="bspline"
       id="path-effect1669"
       is_visible="true"
       lpeversion="1"
       weight="33.333333"
       steps="2"
       helper_size="0"
       apply_no_weight="true"
       apply_with_weight="true"
       only_selected="false" />
    <inkscape:path-effect
       effect="bspline"
       id="path-effect1657"
       is_visible="true"
       lpeversion="1"
       weight="33.333333"
       steps="2"
       helper_size="0"
       apply_no_weight="true"
       apply_with_weight="true"
       only_selected="false" />
    <inkscape:path-effect
       effect="bspline"
       id="path-effect869"
       is_visible="true"
       lpeversion="1"
       weight="33.333333"
       steps="2"
       helper_size="0"
       apply_no_weight="true"
       apply_with_weight="true"
       only_selected="false" />
    <inkscape:path-effect
       effect="bspline"
       id="path-effect861"
       is_visible="true"
       lpeversion="1"
       weight="33.333333"
       steps="2"
       helper_size="0"
       apply_no_weight="true"
       apply_with_weight="true"
       only_selected="false" />
    <filter
       style="color-interpolation-filters:sRGB"
       inkscape:label="Drop Shadow"
       id="filter1837">
      <feFlood
         flood-opacity="0.498039"
         flood-color="rgb(0,0,0)"
         result="flood"
         id="feFlood1827" />
      <feComposite
         in="flood"
         in2="SourceGraphic"
         operator="in"
         result="composite1"
         id="feComposite1829" />
      <feGaussianBlur
         in="composite1"
         stdDeviation="3.40136"
         result="blur"
         id="feGaussianBlur1831" />
      <feOffset
         dx="9"
         dy="0"
         result="offset"
         id="feOffset1833" />
      <feComposite
         in="SourceGraphic"
         in2="offset"
         operator="over"
         result="composite2"
         id="feComposite1835" />
    </filter>
  </defs>
  <sodipodi:namedview
     pagecolor="#ffffff"
     bordercolor="#666666"
     borderopacity="1"
     objecttolerance="10"
     gridtolerance="10"
     guidetolerance="10"
     inkscape:pageopacity="0"
     inkscape:pageshadow="2"
     inkscape:window-width="1920"
     inkscape:window-height="1001"
     id="namedview12"
     showgrid="false"
     inkscape:zoom="0.61999999"
     inkscape:cx="776.35033"
     inkscape:cy="371.19394"
     inkscape:window-x="-9"
     inkscape:window-y="-9"
     inkscape:window-maximized="1"
     inkscape:current-layer="g1980"
     inkscape:document-rotation="0"
     showguides="false"
     fit-margin-top="0"
     fit-margin-left="0"
     fit-margin-right="0"
     fit-margin-bottom="0" />
  <g
     inkscape:groupmode="layer"
     inkscape:label="Image"
     id="g18"
     transform="translate(-28.066256,-28.136913)">
    <g
       id="g1965"
       transform="translate(-8.5913413,-7.1718703)">
      <g
         id="g1980"
         style="stroke-width:1.17504;filter:url(#filter1837)"
         transform="matrix(0.84829256,0,0,0.85376883,40.14047,38.48392)">
        <g
           id="g856"
           transform="matrix(1.3983127,0,0,1.4080019,-82.761941,-82.919678)"
           style="stroke-width:0.837431">
          <rect
             style="fill:#ffffff;stroke:#000000;stroke-width:0;stroke-miterlimit:4;stroke-dasharray:none;stroke-opacity:1"
             id="rect1607"
             width="142.53448"
             height="105.90372"
             x="417.27835"
             y="-50.014931"
             transform="matrix(0.70950573,0.70469966,-0.77166724,0.63602647,0,0)" />
          <rect
             style="fill:#ffffff;stroke:#000000;stroke-width:0;stroke-miterlimit:4;stroke-dasharray:none;stroke-opacity:1"
             id="rect1619"
             width="213.84277"
             height="201.86757"
             x="149.40482"
             y="159.66927" />
          <path
             style="fill:#ffffff;stroke:#000000;stroke-width:0;stroke-linecap:butt;stroke-linejoin:miter;stroke-miterlimit:4;stroke-dasharray:none;stroke-opacity:1"
             d="m 350.62011,426.35911 c 15.7082,14.7128 31.41505,29.42434 44.69879,36.98873 13.28373,7.5644 24.14303,7.98193 36.42397,5.08201 12.28095,-2.89993 25.98265,-9.11672 33.83158,-20.26984 7.84894,-11.15312 9.84472,-27.24228 3.90476,-42.31036 -5.93996,-15.06808 -19.81631,-29.11368 -33.69394,-43.16058"
             id="path1677"
             inkscape:path-effect="#path-effect1679"
             inkscape:original-d="m 350.62011,426.35911 c 15.70817,14.71284 31.41502,29.42438 47.12152,44.13552 10.86096,0.41857 21.72026,0.83611 32.57922,1.25267 13.70352,-6.21617 27.40522,-12.43297 41.10674,-18.65114 1.9969,-16.08913 3.99268,-32.17829 5.98759,-48.26942 -13.87592,-14.04518 -27.75227,-28.09078 -41.62991,-42.13767"
             sodipodi:nodetypes="cccccc" />
          <path
             style="mix-blend-mode:normal;fill:#3a4654;fill-opacity:1;stroke:#000000;stroke-width:0;stroke-linecap:butt;stroke-linejoin:miter;stroke-miterlimit:4;stroke-dasharray:none;stroke-opacity:1"
             d="m 186.51288,232.75591 c 0.69222,-0.34328 2.07636,-1.02968 3.62883,-1.07509 1.55247,-0.0454 3.27261,0.54967 10.37189,6.94891 7.09928,6.39925 19.65259,18.67529 26.02504,24.90767 6.37246,6.23237 6.60147,6.45766 12.02873,6.12761 5.42725,-0.33006 16.05241,-1.21455 21.44034,-1.61917 5.38792,-0.40462 5.53824,-0.32989 5.66584,-5.68963 0.1276,-5.35975 0.23348,-16.1538 0.3497,-21.89102 0.11622,-5.73722 0.24288,-6.41718 -6.06474,-12.95187 -6.30762,-6.53469 -19.04992,-18.92376 -25.43109,-25.42026 -6.38117,-6.4965 -6.40017,-7.10021 -6.61694,-8.11806 -0.21676,-1.01786 -0.63149,-2.44982 -0.15875,-3.88686 0.47275,-1.43704 1.8332,-2.87808 3.57443,-3.98154 1.74124,-1.10345 3.86263,-1.86907 8.64592,-2.68598 4.78329,-0.81691 12.22788,-1.68516 19.58903,-1.68487 7.36115,2.8e-4 14.6382,0.86892 22.48766,3.47095 7.84946,2.60203 16.27075,6.93686 23.6134,12.25875 7.34264,5.32188 13.60639,11.63018 19.86757,21.94824 6.26117,10.31806 12.65654,24.95816 13.96976,37.6614 1.31321,12.70325 -2.38681,23.62531 -2.0722,29.72766 0.31461,6.10235 4.64272,7.38444 23.82122,25.37341 19.1785,17.98896 53.20599,52.68288 70.27247,70.17706 17.06648,17.49418 17.12328,17.65258 18.10354,19.42141 0.98025,1.76884 2.85942,5.08033 3.93184,8.62243 1.07242,3.5421 1.33852,7.31469 1.16427,11.20277 -0.17426,3.88809 -0.78869,7.89164 -1.86705,11.25585 -1.07837,3.36421 -2.62058,6.08937 -5.11841,9.00799 -2.49783,2.91863 -5.95135,6.03091 -10.28366,8.24191 -4.33231,2.21099 -9.54374,3.52074 -13.51784,4.18268 -3.97409,0.66194 -6.71083,0.67591 -10.78696,-0.7372 -4.07613,-1.41311 -9.4915,-4.25369 -21.65984,-14.83445 -12.16834,-10.58076 -31.08859,-28.90116 -49.30467,-46.5656 -18.21607,-17.66445 -35.8027,-34.74552 -44.56569,-43.33178 -8.763,-8.58626 -8.73903,-8.71403 -10.08704,-8.23083 -1.34801,0.4832 -4.00019,1.55061 -8.68065,2.42852 -4.68047,0.8779 -11.35509,1.55242 -17.32094,1.47621 -5.96586,-0.0762 -11.22281,-0.90335 -16.91334,-2.20859 -5.69053,-1.30523 -11.81442,-3.08863 -17.22253,-5.63284 -5.40812,-2.54421 -10.34437,-6.02148 -12.75194,-7.71746 -2.40758,-1.69598 -17.62817,-16.66947 -19.60943,-19.80798 -1.98126,-3.1385 -5.94417,-9.41615 -8.68124,-16.29555 -2.73708,-6.8794 -4.1981,-14.11418 -5.07864,-20.51452 -0.88055,-6.40034 -1.15561,-11.84291 -1.01061,-17.23444 0.14499,-5.39153 0.71013,-10.73158 1.46388,-14.18283 0.75376,-3.45126 1.69607,-5.01295 2.41036,-5.99814 0.71429,-0.98519 1.20022,-1.39342 1.44316,-1.59752 0.24295,-0.2041 0.2431,-0.20407 0.93532,-0.54735 z"
             id="path867"
             sodipodi:nodetypes="cccccccccccccccccccccccccccccccccccccccccccccc"
             inkscape:original-d="m 185.82066,233.09919 c 1.38491,-0.68562 2.76905,-1.37201 4.15238,-2.0592 1.72098,0.59588 3.44112,1.19096 5.16046,1.78524 12.44304,12.24091 25.03269,24.47979 37.5478,36.71848 0.22978,0.22608 0.45878,0.45139 0.68699,0.67582 10.6264,-0.88373 21.25157,-1.76816 31.87608,-2.65351 0.15111,0.0755 0.30142,0.15026 0.4509,0.22417 0.1067,-10.79372 0.2126,-21.58777 0.31765,-32.38286 0.12745,-0.67919 0.25412,-1.35915 0.37999,-2.0399 -12.74206,-12.38876 -25.48433,-24.77786 -38.22769,-37.16797 -0.0185,-0.60291 -0.0369,-1.20664 -0.057,-1.81116 -0.41396,-1.43132 -0.82871,-2.86327 -1.24426,-4.2961 1.36135,-1.44032 2.72184,-2.88132 4.08149,-4.32324 2.1223,-0.76483 4.2437,-1.53044 6.36427,-2.29687 7.44575,-0.86748 14.89034,-1.73577 22.33433,-2.60483 7.27813,0.86945 14.55518,1.73812 21.83159,2.60596 8.42244,4.3358 16.84374,8.67061 25.26438,13.00477 6.26483,6.30931 12.52856,12.61762 18.79164,18.92527 6.25963,14.32833 12.65503,28.96841 18.98148,43.45184 -3.69946,10.92357 -7.3995,21.84562 -11.10055,32.76756 4.32917,1.28296 8.65728,2.56503 12.98485,3.84641 34.02959,34.69604 68.05705,69.38999 102.08437,104.08371 0.0843,0.30228 0.1629,0.45286 0.24317,0.67808 1.88008,3.31245 3.75925,6.62394 5.63763,9.93469 0.26692,3.77356 0.533,7.54615 0.79833,11.31801 -0.61369,4.00449 -1.22813,8.00804 -1.84333,12.01087 -1.54142,2.72601 -3.08362,5.45117 -4.62666,8.17551 -3.45282,3.11323 -6.90634,6.2255 -10.3607,9.33698 -5.2108,1.3106 -10.42223,2.62037 -15.63456,3.92932 -2.7361,0.0136 -5.47284,0.0288 -8.21047,0.0419 -5.41478,-2.83991 -10.83014,-5.6805 -16.24646,-8.52193 -18.92024,-18.32034 -37.84049,-36.64074 -56.76194,-54.96233 -17.47458,-17.04449 -35.0973,-34.0884 -52.64715,-51.13375 0.0248,-0.12698 0.0488,-0.25475 0.0719,-0.38327 -2.68228,1.18871 -5.37189,2.16312 -8.05906,3.24349 -6.67406,0.67532 -13.34868,1.34983 -20.02424,2.02359 -5.25634,-0.82637 -10.5133,-1.65348 -15.77115,-2.48146 -6.12326,-1.78262 -12.24714,-3.56605 -18.37195,-5.35029 -4.70556,-3.28441 -9.62762,-6.78182 -14.44267,-10.17393 l -15.22059,-14.97349 c -3.9623,-6.27715 -7.92523,-12.55478 -11.88903,-18.83339 -1.59307,-7.46341 -2.97094,-14.71498 -4.45764,-22.0737 -0.27422,-5.44187 -0.54929,-10.88444 -0.82518,-16.32785 0.566,-5.33951 1.13113,-10.67956 1.69546,-16.02055 0.94323,-1.56105 1.88554,-3.12274 2.82714,-4.68538 0.48679,-0.40741 0.97268,-0.81568 1.45785,-1.22474 z"
             inkscape:path-effect="#path-effect869" />
          <rect
             style="fill:#ffffff;stroke:#000000;stroke-width:0"
             id="rect848"
             width="20.914877"
             height="21.725302"
             x="361.14203"
             y="286.84302" />
          <path
             style="fill:#bd93f9;fill-opacity:1;stroke:#000000;stroke-width:0;stroke-linecap:butt;stroke-linejoin:miter;stroke-miterlimit:4;stroke-dasharray:none;stroke-opacity:1"
             d="m 298.49723,396.50544 c 0.016,0.18921 0.0479,0.5668 -1.89417,9.47662 -1.94206,8.90982 -5.8577,26.3514 -8.14737,35.58787 -2.28966,9.23646 -2.95325,10.26782 -4.50144,11.33588 -1.54818,1.06807 -3.98129,2.17308 -13.16103,2.61519 -9.17974,0.44211 -25.10576,0.2211 -33.76942,-0.47843 -8.66365,-0.69953 -10.06455,-1.87823 -12.82991,-11.63959 -2.76535,-9.76136 -6.89433,-28.10484 -8.99583,-37.24038 -2.10149,-9.13555 -2.17521,-9.06188 -6.6357,-10.86664 -4.46049,-1.80477 -13.30827,-5.48818 -17.73273,-7.29288 -4.42446,-1.80469 -4.42446,-1.73108 -12.20338,3.16764 -7.77893,4.89871 -23.3363,14.62295 -31.74166,19.55886 -8.40535,4.93592 -9.6588,5.08326 -10.98588,4.9361 -1.32709,-0.14716 -2.72799,-0.58917 -9.14297,-6.70365 -6.41499,-6.11448 -17.84341,-17.90146 -23.85292,-24.82638 -6.009515,-6.92491 -6.599372,-8.98763 -6.26776,-11.05077 0.331612,-2.06313 1.585054,-4.12586 6.76733,-12.41027 5.18228,-8.2844 14.20956,-22.65703 18.63355,-29.69251 4.42398,-7.03547 4.20278,-6.66712 2.39654,-10.75554 -1.80624,-4.08843 -5.1979,-12.63398 -6.9709,-16.93294 -1.773,-4.29897 -2.06056,-4.39474 -11.27741,-6.42075 -9.216838,-2.02602 -27.428578,-6.00411 -36.623326,-8.16963 -9.194749,-2.16551 -9.312727,-2.40126 -10.123801,-3.9852 -0.811075,-1.58394 -2.285715,-4.45702 -2.875824,-13.70285 -0.59011,-9.24584 -0.295182,-24.86358 0.515869,-33.48333 0.811051,-8.61975 2.138224,-10.24046 8.221642,-12.30335 6.083418,-2.0629 16.921982,-4.56763 26.47053,-6.66723 9.54855,-2.09961 17.80649,-3.79397 22.00893,-4.75153 4.20243,-0.95755 4.34989,-1.17854 6.00891,-5.0462 1.65901,-3.86765 4.82948,-11.38187 6.52581,-15.13922 1.69633,-3.75736 1.91754,-3.75736 -3.39147,-12.37647 -5.309,-8.61911 -16.14757,-25.85757 -21.38298,-35.17704 -5.23541,-9.31946 -4.866752,-10.71916 0.40533,-16.83413 5.27209,-6.11496 15.44707,-16.94424 21.53018,-23.02211 6.08311,-6.07786 8.07386,-7.403896 10.24928,-8.177408 2.17541,-0.773512 4.53482,-0.994515 14.14059,4.262698 9.60577,5.25721 26.5237,16.03408 34.81863,21.4117 8.29493,5.37762 8,5.37762 11.31786,3.83043 3.31786,-1.54719 10.24863,-4.64126 14.00918,-6.22512 3.76054,-1.58387 4.35042,-1.65754 6.7021,-11.45708 2.35167,-9.79953 6.49551,-29.465903 9.2238,-39.706407 2.72829,-10.240504 4.05546,-11.124526 6.34282,-11.890979 2.28737,-0.766454 5.67621,-1.443642 14.00829,-1.775098 8.33208,-0.331456 21.53005,-0.331456 29.11066,0.104329 7.58061,0.435784 9.52566,1.332733 11.00011,2.769569 1.47445,1.436837 2.50671,3.425888 3.76002,8.582849 1.25332,5.156961 2.72795,13.481513 4.68193,22.506198 1.95399,9.024685 4.38715,18.748929 5.60363,23.684759 1.21649,4.93583 1.21649,4.93582 5.05117,6.48272 3.83468,1.5469 11.50277,4.56731 15.18922,6.11413 3.68645,1.54682 3.39155,1.62048 11.42845,-3.57335 8.0369,-5.19384 24.40537,-15.65479 33.54855,-20.95899 9.14319,-5.304201 11.06022,-5.451537 12.74863,-5.247233 1.68841,0.204305 3.32564,0.827483 9.59336,6.721053 6.26772,5.89358 17.4005,17.23927 23.02472,23.0322 5.62423,5.79293 5.87793,6.21538 6.02514,7.35723 0.14721,1.14185 0.22093,3.05724 -0.40591,5.30395 -0.62684,2.2467 -1.95399,4.8251 -7.19505,13.19592 -5.24106,8.37082 -14.37194,22.49685 -18.86926,29.64308 -4.49733,7.14623 -4.49725,7.14631 -2.61718,11.08782 1.88007,3.94152 5.56668,11.7504 7.37652,15.75413 1.80985,4.00373 1.72873,4.24684 11.13044,6.34633 9.40172,2.09949 28.27703,6.07758 37.86219,8.28803 9.58515,2.21045 9.88009,2.65248 10.61745,3.72071 0.73737,1.06822 1.91708,2.76257 2.43284,3.90431 0.51576,1.14173 0.36829,1.73108 0.25775,9.94556 -0.11054,8.21448 -0.18428,24.05323 -0.45868,32.36791 -0.2744,8.31468 -0.68428,8.99724 -1.569,9.99166 -0.88472,0.99442 -2.21192,2.2468 -12.01833,4.93574 -9.8064,2.68893 -28.09192,6.81437 -37.08718,8.95108 -8.99527,2.13672 -8.7003,2.28408 -9.84375,5.26772 -1.14346,2.98364 -3.72407,8.80345 -4.82978,11.63949 -1.10572,2.83604 -0.73702,2.68869 -5.99047,-2.96464 -5.25345,-5.65334 -16.20256,-16.88872 -21.8064,-22.45127 -5.60384,-5.56254 -5.89878,-5.48887 -5.49356,-8.10385 0.40523,-2.61498 1.5112,-7.91911 1.5113,-15.61761 9e-5,-7.69849 -1.10588,-17.79109 -2.58045,-25.41594 -1.47456,-7.62485 -3.31788,-12.78166 -7.77867,-20.51713 -4.46078,-7.73546 -11.53903,-18.04907 -19.9077,-26.153 -8.36866,-8.10393 -18.02751,-13.9974 -27.50231,-18.15995 -9.4748,-4.16254 -18.76502,-6.59362 -25.80668,-7.88184 -7.04165,-1.28822 -11.98164,-1.43779 -17.54862,-1.03265 -5.56698,0.40514 -11.83416,1.36283 -17.17996,2.57837 -5.3458,1.21555 -9.76971,2.68892 -12.71922,3.94135 -2.94951,1.25243 -4.42415,2.2838 -6.12012,3.94148 -1.69597,1.65767 -3.61299,3.9414 -4.9771,6.8885 -1.36411,2.9471 -2.17515,6.55685 -2.21185,10.0932 -0.0367,3.53636 0.70061,6.99879 2.4705,10.31393 1.76988,3.31514 4.57167,6.48288 7.8897,10.20325 3.31803,3.72037 7.1521,7.99315 11.61303,12.63438 4.46093,4.64123 9.54845,9.65072 12.03696,12.10028 2.48852,2.44955 2.30414,2.26533 2.26688,3.7756 -0.0373,1.51027 0.0365,4.67802 -0.0557,6.39044 -0.0922,1.71241 -0.27652,1.89663 -1.86145,2.15444 -1.58493,0.2578 -4.53424,0.55248 -6.14492,0.60947 -1.61069,0.057 -1.78083,-0.0563 -7.49446,-5.47199 -5.71363,-5.41564 -17.07003,-16.24319 -23.15295,-21.84226 -6.08291,-5.59906 -6.96769,-6.04108 -9.02873,-6.78871 -2.06103,-0.74763 -5.16483,-1.75729 -8.45006,-2.08856 -3.28524,-0.33127 -6.66899,0.0362 -9.69232,1.06756 -3.02333,1.03136 -5.67771,2.72577 -8.07419,5.00968 -2.39648,2.28392 -4.5347,5.15701 -6.08313,8.36189 -1.54842,3.20488 -2.50694,6.74097 -3.39286,10.79927 -0.88592,4.0583 -1.69472,8.61305 -2.17394,14.80148 -0.47922,6.18843 -0.62668,13.99731 1.8e-4,20.73825 0.62687,6.74094 2.02777,12.41342 4.38739,18.49126 2.35962,6.07784 5.67755,12.56067 9.91738,18.93315 4.23982,6.37248 9.40104,12.63431 14.12007,17.60701 4.71903,4.97269 8.99546,8.65612 15.35598,12.33189 6.36053,3.67576 14.87476,7.37443 21.36332,9.84232 6.48856,2.46788 10.9862,3.72025 16.62681,4.53052 5.64061,0.81026 12.42394,1.17861 18.58064,1.03119 6.15671,-0.14741 11.68658,-0.81043 14.67286,-1.10499 2.98628,-0.29456 3.42872,-0.22089 7.29969,3.96029 3.87098,4.18119 11.1703,12.46877 17.51287,18.02308 6.34257,5.55432 11.7275,8.37511 10.60928,10.64452 -1.11821,2.26942 -8.73912,3.98778 -12.55003,4.84706 -3.8109,0.85928 -3.81094,0.85928 -3.79495,1.0485 z"
             id="path859"
             sodipodi:nodetypes="ccccccccccccccccccccccccccccccccccccccccccccccccccccccccccccccccccccccccccccccccccccccccccccccccccccccccccccccccccccc"
             inkscape:original-d="m 298.48124,396.31622 c 0.0326,0.37838 0.0644,0.75598 0.0957,1.1328 -3.91502,17.44307 -7.83066,34.88465 -11.74718,52.32579 -0.6628,1.03218 -1.32638,2.06354 -1.99081,3.09415 -2.43246,1.10585 -4.86556,2.21088 -7.29953,3.31515 -15.92595,-0.22023 -31.85197,-0.44124 -47.77916,-0.66303 -1.40018,-1.17796 -2.80108,-2.35666 -4.20278,-3.53617 -4.12835,-18.34342 -8.25731,-36.68691 -12.38719,-55.03153 -0.0729,0.0745 -0.14665,0.14813 -0.22116,0.22101 -8.84743,-3.68279 -17.6952,-7.36622 -26.54396,-11.0505 6.2e-4,0.0745 6.2e-4,0.14811 0,0.22101 -15.55729,9.72542 -31.11465,19.44968 -46.67313,29.17334 -1.2527,0.14812 -2.50615,0.29545 -3.7604,0.44202 -1.40017,-0.44125 -2.80107,-0.88326 -4.20278,-1.32607 -11.4281,-11.78665 -22.85652,-23.57363 -34.285952,-35.36162 -0.589091,-2.06198 -1.178949,-4.1247 -1.769593,-6.18824 1.254268,-2.06203 2.507717,-4.12475 3.760392,-6.18828 9.217623,-14.43885 18.139153,-28.8779 27.207553,-43.318 -0.22042,0.36913 -0.44162,0.73748 -0.6636,1.10504 -3.39101,-8.54512 -6.78267,-17.09067 -10.17518,-25.63718 -0.14669,-0.0729 -0.44162,-0.14656 -0.6636,-0.22101 -18.211681,-3.97744 -36.423419,-7.95554 -54.636303,-11.93451 -0.146687,-0.36757 -0.29415,-0.58857 -0.4424,-0.88404 -1.473909,-2.8724 -2.948545,-5.74549 -4.423992,-8.6194 0.295723,-15.61758 0.590649,-31.23532 0.884799,-46.85415 1.328007,-1.61999 2.655179,-3.2407 3.981593,-4.86222 10.83978,-2.50406 21.678345,-5.00879 32.516338,-7.51435 8.259075,-1.69367 16.517025,-3.388 24.774355,-5.0832 0.14826,-0.22023 0.29572,-0.44122 0.44241,-0.66302 3.17137,-7.51371 6.34184,-15.02793 9.51158,-22.54304 0.22198,6.3e-4 0.44319,6.3e-4 0.6636,0 -10.83822,-17.23835 -21.67678,-34.47681 -32.516341,-51.71639 0.369447,-1.39898 0.73811,-2.79868 1.105988,-4.19916 10.176173,-10.82894 20.351153,-21.65822 30.525553,-32.48849 1.99162,-1.32531 3.98237,-2.651346 5.97239,-3.978192 2.36029,-0.220227 4.7197,-0.44123 7.07838,-0.663023 16.88605,10.683145 33.77059,21.512425 50.65469,32.267475 -0.29412,-0.0729 -0.58905,6.3e-4 -0.88479,0 6.93188,-3.09343 13.86265,-6.18751 20.79278,-9.28242 0.59065,-0.0729 1.18053,-0.14656 1.76962,-0.22102 4.12991,-19.52216 8.25885,-39.191671 12.38717,-58.788678 1.32801,-0.883275 2.65517,-1.767298 3.98157,-2.652121 3.24508,-0.662261 6.63675,-1.325278 9.95397,-1.989091 13.34676,7.85e-4 26.54473,7.85e-4 39.81593,0 1.91787,0.811169 3.83491,1.768863 5.75118,2.652121 1.03309,1.989913 2.06535,3.978964 3.09684,5.967271 1.47547,8.325661 2.95012,16.650208 4.42396,24.974139 2.43402,9.72542 4.86716,19.449669 7.29961,29.173329 0.0744,0.14813 6.1e-4,0.14812 0,0.22102 7.6692,3.0213 15.33729,6.04172 23.00477,9.06141 -0.29418,0.0745 -0.58909,0.14812 -0.88481,0.22101 16.36987,-10.46057 32.73835,-20.92151 49.10631,-31.383434 1.91788,-0.146569 3.83491,-0.293905 5.7512,-0.442018 1.47547,0.516474 3.09754,1.179499 4.64515,1.768073 10.98727,11.198859 22.1208,22.543809 33.17995,33.814539 0.22203,0.29548 0.44317,0.73749 0.66364,1.10506 0.0744,1.91623 0.14826,3.83161 0.22116,5.74624 -1.32644,2.57929 -2.6536,5.15768 -3.98155,7.73536 -9.0686,14.21939 -18.2851,28.29008 -27.42874,42.43396 0.0744,0.22179 0.14819,0.14811 0.22115,0.22101 3.68752,7.80996 7.37415,15.61883 11.06002,23.42707 6.3e-4,0.2218 -0.14673,0.44281 -0.22124,0.66303 18.8769,3.97901 37.75221,7.95711 56.6271,11.93451 0.29572,0.44281 0.59068,0.88483 0.8848,1.32606 1.18058,1.69523 2.36025,3.38961 3.53925,5.08323 -0.14673,0.59016 -0.29421,1.17951 -0.4424,1.76809 -0.0729,15.84016 -0.14672,31.67891 -0.22125,47.51718 -0.44162,0.81117 -0.88401,1.4742 -1.32718,2.21011 -1.32643,1.25319 -2.65364,2.50556 -3.98161,3.75717 -18.28538,4.12639 -36.5709,8.25183 -54.85747,12.37653 0.29567,0.14812 0.59065,0.29547 0.88477,0.44203 -2.57994,5.82082 -5.16053,11.64064 -7.742,17.4598 0.36946,-0.14656 0.73816,-0.2939 1.10603,-0.44202 -10.91197,-11.12362 -21.82426,-22.39488 -32.73754,-33.59351 -0.29416,0.0745 -0.58911,0.14812 -0.88479,0.22101 1.10674,-5.30358 2.21275,-10.60771 3.31799,-15.91273 -1.10526,-10.09222 -2.21126,-20.18482 -3.31799,-30.27839 -1.84259,-5.15622 -3.68589,-10.31304 -5.53004,-15.47071 -7.07773,-10.3132 -14.15599,-20.62681 -21.23514,-30.9414 -9.65847,-5.89293 -19.3173,-11.78643 -28.97716,-17.6808 -9.28976,-2.43039 -18.57999,-4.86144 -27.87112,-7.29335 -4.79199,-0.14657 -9.73204,-0.29388 -14.59917,-0.44202 -6.26668,0.95852 -12.53386,1.9162 -18.802,2.87315 -4.42328,1.47421 -8.84719,2.94756 -13.27197,4.4202 -1.47393,1.03218 -2.94858,2.06354 -4.42397,3.09413 -1.91631,2.28461 -3.83334,4.56833 -5.75118,6.85132 -0.81035,3.61069 -1.62137,7.22045 -2.4332,10.8295 0.7381,3.46334 1.47545,6.92576 2.21199,10.38748 2.80268,3.16865 5.60446,6.3364 8.40555,9.50343 3.83498,4.2737 7.66905,8.54648 11.5024,12.81855 5.08845,5.01044 10.17599,10.01991 15.26277,15.0287 -0.0729,-0.14656 -0.29413,-0.2939 -0.4424,-0.44202 0.0744,3.16865 0.14827,6.3364 0.22117,9.50343 -0.22039,0.29548 -0.44162,0.44281 -0.66355,0.66304 -2.94861,0.29546 -5.89791,0.59014 -8.84799,0.88403 -0.29417,-0.14655 -0.44165,-0.29389 -0.6636,-0.44202 -11.20688,-10.68158 -22.56161,-21.51088 -33.84355,-32.26749 -0.88402,-0.44124 -1.7688,-0.88325 -2.65437,-1.32605 -3.24355,-1.03062 -6.34029,-2.06198 -9.5116,-3.09411 -3.39101,0.44277 -6.78267,0.73745 -10.1752,1.10502 -2.65364,1.69522 -5.30803,3.3896 -7.96317,5.08323 -2.13751,2.87397 -4.27575,5.74704 -6.41477,8.6194 -0.95777,3.53701 -1.91629,7.0731 -2.8756,10.60849 -0.88405,4.56842 -1.62137,9.13587 -2.4332,13.70262 -0.14669,7.80997 -0.29419,15.61884 -0.44241,23.42708 1.40174,5.67349 2.80265,11.34597 4.2028,17.01779 3.31885,6.48384 6.63677,12.96667 9.95398,19.44885 5.16221,6.26287 10.32343,12.52471 15.48397,18.78587 4.27738,3.68436 8.55381,7.36779 12.82957,11.05051 8.40656,3.75803 16.95941,7.36779 25.43797,11.05051 4.49858,1.2532 8.99623,2.50556 13.49316,3.75717 6.78439,0.36914 13.56772,0.73747 20.35034,1.10505 5.53093,-0.66226 11.0608,-1.32528 16.58997,-1.98909 0.44318,0.0745 0.88562,0.14812 1.32725,0.22101 7.30047,8.28882 14.5998,16.57638 21.89871,24.86361 5.38603,2.82174 10.77096,5.64253 16.15547,8.46273 -7.62059,1.71924 -15.2415,3.4376 -22.86351,5.15526 z"
             inkscape:path-effect="#path-effect861" />
        </g>
      </g>
    </g>
  </g>
</svg>
